<?xml version="1.0" standalone="no"?>
<!DOCTYPE svg PUBLIC "-//W3C//DTD SVG 20010904//EN"
 "http://www.w3.org/TR/2001/REC-SVG-20010904/DTD/svg10.dtd">
<svg version="1.0" xmlns="http://www.w3.org/2000/svg"
 width="700.000000pt" height="700.000000pt" viewBox="0 0 700.000000 700.000000"
 preserveAspectRatio="xMidYMid meet">
<metadata>
Created by potrace 1.14, written by Peter Selinger 2001-2017
</metadata>
<g transform="translate(0.000000,700.000000) scale(0.100000,-0.100000)"
fill="#000000" stroke="none">
<path d="M86 6918 c-9 -12 -16 -26 -16 -30 0 -6 94 -118 155 -184 13 -14 51
-58 140 -159 39 -44 75 -85 80 -91 6 -6 39 -44 75 -84 36 -41 123 -139 194
-219 71 -81 156 -177 190 -215 34 -38 66 -74 71 -80 6 -6 44 -49 85 -96 41
-47 89 -101 106 -120 17 -19 156 -177 309 -350 153 -173 297 -335 319 -360 23
-25 71 -79 107 -120 239 -272 316 -359 342 -387 l29 -31 -43 -39 c-23 -21 -47
-43 -53 -48 -6 -6 -49 -44 -95 -85 -47 -41 -92 -82 -101 -90 -9 -8 -49 -44
-89 -80 -41 -36 -81 -72 -90 -80 -9 -9 -56 -52 -106 -95 -49 -44 -94 -85 -100
-91 -5 -5 -50 -46 -100 -90 -49 -43 -95 -83 -101 -89 -24 -22 -163 -147 -182
-163 -10 -9 -59 -53 -108 -97 -87 -79 -121 -109 -284 -255 -46 -41 -91 -82
-100 -90 -9 -8 -56 -51 -106 -95 -49 -44 -94 -84 -100 -90 -6 -5 -26 -24 -45
-40 -19 -17 -79 -71 -134 -120 -55 -50 -105 -94 -111 -100 -208 -184 -230
-215 -219 -299 14 -106 74 -189 168 -231 29 -12 64 -33 78 -47 14 -13 56 -85
93 -161 76 -155 101 -189 160 -219 83 -42 181 -24 301 57 l36 25 112 -67 c62
-37 121 -73 132 -79 12 -6 61 -35 109 -65 86 -52 92 -54 160 -54 71 0 71 0
336 132 257 127 522 249 686 313 43 17 93 38 109 45 134 61 551 201 761 255
144 37 168 43 247 55 17 3 55 10 82 15 28 5 66 12 85 14 84 13 212 46 317 84
l80 28 253 -665 c139 -366 259 -679 266 -696 7 -16 85 -221 174 -455 90 -237
171 -435 182 -448 31 -32 76 -42 117 -26 19 8 82 58 140 112 58 53 111 102
117 107 6 6 57 53 114 105 57 52 112 103 124 113 29 25 117 107 207 191 91 86
149 139 294 271 60 55 119 109 131 120 11 11 63 58 114 105 103 94 105 95 239
218 52 48 102 94 111 102 58 50 230 211 262 244 38 39 53 72 63 140 6 42 -35
172 -133 428 l-49 127 63 64 c34 35 76 92 93 126 58 115 63 155 58 545 -3 193
-7 360 -10 371 -2 11 -8 45 -12 75 -42 332 -196 702 -387 932 l-39 47 124 60
c133 64 159 88 159 148 0 47 -28 84 -172 225 -227 223 -474 412 -717 549 -70
40 -272 139 -283 139 -24 0 -5 18 68 65 88 57 105 71 121 102 24 46 7 110 -37
139 -57 38 -448 152 -577 169 -27 3 -59 8 -70 11 -21 4 -40 7 -160 21 -138 16
-514 8 -630 -12 -16 -3 -53 -10 -80 -15 -28 -4 -57 -10 -64 -12 -8 -2 -32 22
-53 52 -71 100 -91 124 -178 211 -92 93 -199 169 -237 169 -37 0 -90 -26 -104
-52 -10 -17 -13 -97 -15 -298 -2 -318 -1 -300 -15 -300 -18 0 -199 -110 -294
-179 -156 -113 -348 -288 -450 -410 -27 -33 -53 -60 -56 -60 -3 -1 -167 96
-365 215 -1592 958 -2325 1394 -2342 1394 -12 0 -28 -10 -36 -22z"/>
</g>
</svg>
